HIERARCHY
ROOT RootJoint
{
    OFFSET   0.000000   0.000000   0.000000
    CHANNELS 6 Xposition Yposition Zposition Xrotation Yrotation Zrotation
    JOINT pelvis_lowerback
    {
        OFFSET   0.000000   0.093605   0.000000
        CHANNELS 3 Xrotation Yrotation Zrotation
        JOINT lowerback_torso
        {
            OFFSET   0.000000   0.100000   0.000000
            CHANNELS 3 Xrotation Yrotation Zrotation
            JOINT torso_head
            {
                OFFSET   0.000000   0.282350   0.000000
                CHANNELS 3 Xrotation Yrotation Zrotation
                End Site
                {
                    OFFSET   0.000000   0.192650   0.000000
                }
            }
            JOINT rTorso_Clavicle
            {
                OFFSET  -0.001000   0.157500   0.000000
                CHANNELS 3 Xrotation Yrotation Zrotation
                JOINT rShoulder
                {
                    OFFSET  -0.117647   0.000000   0.000000
                    CHANNELS 3 Xrotation Yrotation Zrotation
                    JOINT rElbow
                    {
                        OFFSET  -0.245000   0.000000   0.000000
                        CHANNELS 3 Xrotation Yrotation Zrotation
                        JOINT rWrist
                        {
                            OFFSET  -0.240000   0.000000   0.000000
                            CHANNELS 3 Xrotation Yrotation Zrotation
                            End Site
                            {
                                OFFSET  -0.116353  -0.002500   0.000000
                            }
                        }
                    }
                }
            }
            JOINT lTorso_Clavicle
            {
                OFFSET   0.001000   0.157500   0.000000
                CHANNELS 3 Xrotation Yrotation Zrotation
                JOINT lShoulder
                {
                    OFFSET   0.117647   0.000000   0.000000
                    CHANNELS 3 Xrotation Yrotation Zrotation
                    JOINT lElbow
                    {
                        OFFSET   0.245000   0.000000   0.000000
                        CHANNELS 3 Xrotation Yrotation Zrotation
                        JOINT lWrist
                        {
                            OFFSET   0.240000   0.000000   0.000000
                            CHANNELS 3 Xrotation Yrotation Zrotation
                            End Site
                            {
                                OFFSET   0.116353  -0.002500   0.000000
                            }
                        }
                    }
                }
            }
        }
    }
    JOINT rHip
    {
        OFFSET  -0.100000  -0.051395   0.000000
        CHANNELS 3 Xrotation Yrotation Zrotation
        JOINT rKnee
        {
            OFFSET   0.000000  -0.410000   0.000000
            CHANNELS 3 Xrotation Yrotation Zrotation
            JOINT rAnkle
            {
                OFFSET   0.000000  -0.390000   0.000000
                CHANNELS 3 Xrotation Yrotation Zrotation
                JOINT rToeJoint
                {
                    OFFSET   0.000000  -0.050000   0.130000
                    CHANNELS 3 Xrotation Yrotation Zrotation
                    End Site
                    {
                        OFFSET  -0.010000   0.002000   0.060000
                    }
                }
            }
        }
    }
    JOINT lHip
    {
        OFFSET   0.100000  -0.051395   0.000000
        CHANNELS 3 Xrotation Yrotation Zrotation
        JOINT lKnee
        {
            OFFSET   0.000000  -0.410000   0.000000
            CHANNELS 3 Xrotation Yrotation Zrotation
            JOINT lAnkle
            {
                OFFSET   0.000000  -0.390000   0.000000
                CHANNELS 3 Xrotation Yrotation Zrotation
                JOINT lToeJoint
                {
                    OFFSET   0.000000  -0.050000   0.130000
                    CHANNELS 3 Xrotation Yrotation Zrotation
                    End Site
                    {
                        OFFSET   0.010000   0.002000   0.060000
                    }
                }
            }
        }
    }
}
MOTION
Frames: 12
Frame Time:   0.008333
 -2.290213   0.731512   3.958855  -6.394149 -16.338755  -6.749034  13.088060  -4.143601  -0.384970   2.233013   0.327317   0.759732  -0.513832  -7.677205   2.372061  -2.220111   2.250425  -2.488876 -19.928465   6.912448   5.508081   0.010024  15.661801  -0.007999   2.241169   3.149864  -6.123906   6.064730   7.222436  -1.357327  13.594551  -5.759004 -41.691142   0.038097 -53.739813   0.035786   2.199125  -8.283544   1.314238 -41.391589  -5.305831 -24.403065  58.367246  -0.005769  -0.004770  -9.990292   1.895670   5.083168   1.085004   0.000878   0.000722 -13.970501   2.213063  34.054779  67.764836   0.008361   0.004555 -37.006922   5.324910   0.247598  -9.993128   0.006371   0.010098
 -2.286811   0.731608   3.958668  -6.488069 -15.789555  -6.902086  13.118552  -3.960798  -0.462177   2.412781   0.162879   0.883952  -0.407913  -7.463522   2.400933  -1.875116   2.041103  -2.247862 -19.102249   6.293081   5.976284   0.013852  16.265288  -0.012685   2.275817   3.257462  -6.377639   5.964854   6.850835  -1.345073  12.872477  -5.622741 -41.106266   0.040870 -52.749794   0.037865   2.235960  -8.244404   1.475640 -40.911492  -5.419775 -24.584070  57.878673  -0.006227  -0.005107  -9.813430   1.748442   4.984880   1.123979   0.000853   0.000648 -14.434882   2.065341  34.165042  68.255658   0.009274   0.005044 -37.122457   5.189275   0.021806  -9.832484   0.005668   0.008866
 -2.283332   0.731905   3.958570  -6.578611 -15.246116  -7.040160  13.125701  -3.786905  -0.555506   2.578778  -0.009584   1.011382  -0.305016  -7.254593   2.418392  -1.531116   1.831085  -1.951639 -18.312035   5.695466   6.477086   0.016736  16.826548  -0.015635   2.330048   3.421626  -6.490012   5.841052   6.469389  -1.307224  12.170511  -5.510527 -40.524196   0.042482 -51.813703   0.038832   2.268928  -8.099927   1.698292 -40.392842  -5.532357 -24.765962  57.322412  -0.006847  -0.005587  -9.622282   1.620045   4.869013   1.162734   0.000839   0.000597 -14.897485   1.938985  34.252363  68.722954   0.009937   0.005332 -37.154424   5.017947  -0.195975  -9.789371   0.004687   0.007294
 -2.279777   0.732280   3.958577  -6.657081 -14.720568  -7.168809  13.108596  -3.634543  -0.646753   2.720649  -0.183091   1.146290  -0.211181  -7.058712   2.427428  -1.202273   1.632482  -1.635608 -17.565358   5.133250   6.979746   0.018572  17.346813  -0.017155   2.382143   3.575309  -6.517721   5.714016   6.102646  -1.251737  11.504225  -5.415695 -39.965234   0.042899 -50.943315   0.038722   2.299617  -7.959007   1.950229 -39.860922  -5.635314 -24.941059  56.726231  -0.007509  -0.006093  -9.424665   1.509060   4.743885   1.198079   0.000821   0.000555 -15.346311   1.830872  34.316609  69.164692   0.010313   0.005392 -37.173571   4.846886  -0.403554  -9.764417   0.003838   0.005948
 -2.276172   0.732663   3.958688  -6.725416 -14.220233  -7.290477  13.070825  -3.501691  -0.731469   2.838851  -0.354516   1.286865  -0.126159  -6.875935   2.432517  -0.891598   1.444475  -1.318929 -16.861807   4.607896   7.469666   0.019491  17.830090  -0.017639   2.430485   3.712520  -6.501322   5.589990   5.756126  -1.184881  10.876656  -5.333660 -39.432708   0.042396 -50.133807   0.037821   2.328512  -7.837817   2.214601 -39.328804  -5.727833 -25.108958  56.112333  -0.008100  -0.006518  -9.225129   1.410131   4.613796   1.230107   0.000794   0.000515 -15.775257   1.738087  34.361163  69.589363   0.010467   0.005288 -37.198011   4.681008  -0.602689  -9.747815   0.003128   0.004830
 -2.272543   0.733013   3.958897  -6.786956 -13.749767  -7.406779  13.016188  -3.385444  -0.809318   2.936031  -0.522087   1.429960  -0.048940  -6.705478   2.435871  -0.599821   1.265589  -1.011243 -16.199957   4.118214   7.939619   0.019669  18.279557  -0.017397   2.475406   3.835597  -6.463482   5.471475   5.431428  -1.110583  10.287725  -5.261439 -38.927126   0.041210 -49.380025   0.036363   2.355791  -7.732960   2.484547 -38.804380  -5.811097 -25.270133  55.496194  -0.008550  -0.006796  -9.026459   1.320120   4.481763   1.259139   0.000760   0.000475 -16.180844   1.659112  34.389921  70.003890   0.010458   0.005074 -37.232076   4.521359  -0.794237  -9.744018   0.002515   0.003880
 -2.268919   0.733311   3.959194  -6.844349 -13.311941  -7.519047  12.948157  -3.283442  -0.881144   3.014966  -0.684785   1.572632   0.021355  -6.546516   2.438488  -0.326680   1.094839  -0.717235 -15.578021   3.662264   8.386291   0.019285  18.697868  -0.016667   2.517322   3.946952  -6.416695   5.359517   5.128583  -1.031774   9.736196  -5.197089 -38.448296   0.039521 -48.677484   0.034524   2.381534  -7.639653   2.756515 -38.293318  -5.887049 -25.423863  54.889814  -0.008820  -0.006903  -8.831708   1.238048   4.350847   1.285573   0.000719   0.000434 -16.561074   1.592643  34.406422  70.412143   0.010327   0.004787 -37.275888   4.368338  -0.978429  -9.758019   0.001961   0.003053
 -2.265331   0.733577   3.959250  -6.811916 -12.590549  -7.694184  12.802004  -3.156221  -0.891215   3.176346  -0.962842   1.767858   0.175143  -6.312203   2.477562  -0.019781   0.828911  -0.546581 -14.547299   2.940659   9.146287   0.025041  19.527155  -0.022403   2.519440   3.972290  -6.693098   5.236911   4.629190  -0.986869   9.032794  -5.171968 -37.817330   0.040635 -47.805087   0.034825   2.363315  -7.599428   2.987065 -37.670272  -6.046912 -25.571495  54.236770  -0.010029  -0.008426  -8.748482   1.097874   4.220256   1.298123   0.000641   0.000394 -17.097889   1.398240  34.527527  70.725305   0.010199   0.004853 -37.568395   4.186054  -1.186225  -9.106486   0.004089   0.006024
 -2.261645   0.733755   3.959120  -6.746264 -11.780193  -7.865584  12.672294  -3.056370  -0.921097   3.340152  -1.268759   1.985644   0.326618  -6.084547   2.509425   0.289868   0.557937  -0.300148 -13.558327   2.251507   9.935770   0.029588  20.300556  -0.026392   2.538197   4.055962  -6.831985   5.083762   4.112909  -0.908296   8.340687  -5.176034 -37.187231   0.040692 -46.989942   0.034349   2.343658  -7.529234   3.295542 -37.001440  -6.177060 -25.720255  53.547854  -0.011600  -0.010486  -8.710912   0.983185   4.088169   1.309157   0.000577   0.000371 -17.695080   1.188375  34.648014  71.028118   0.010223   0.005019 -37.938042   4.014939  -1.408399  -8.261408   0.006810   0.010151
 -2.257855   0.733827   3.958871  -6.667878 -10.952429  -8.030603  12.562499  -2.974343  -0.963389   3.503275  -1.571709   2.208541   0.469284  -5.870600   2.531161   0.589293   0.305354  -0.011777 -12.619276   1.611166  10.724748   0.032704  21.018892  -0.028825   2.556006   4.133022  -6.872274   4.924214   3.610372  -0.812561   7.678966  -5.196326 -36.579949   0.039703 -46.234210   0.033138   2.325265  -7.479363   3.643204 -36.324468  -6.281282 -25.868203  52.848398  -0.013055  -0.012442  -8.676203   0.882790   3.952009   1.317464   0.000512   0.000342 -18.318260   0.980993  34.752326  71.334774   0.010337   0.005189 -38.354430   3.855325  -1.637660  -7.386210   0.009357   0.013827
 -2.253997   0.733787   3.958553  -6.584762 -10.133387  -8.192382  12.467983  -2.902645  -1.011036   3.664684  -1.860457   2.430527   0.603586  -5.670562   2.546324   0.875021   0.073453   0.295790 -11.730364   1.022029  11.497883   0.034496  21.687887  -0.030029   2.572029   4.201087  -6.849184   4.768684   3.132229  -0.710594   7.054577  -5.225422 -36.002824   0.037957 -45.531686   0.031456   2.308346  -7.448210   4.002562 -35.650108  -6.357604 -26.010299  52.152270  -0.014260  -0.014101  -8.631093   0.807421   3.811567   1.324296   0.000452   0.000314 -18.947285   0.777255  34.839156  71.654090   0.010520   0.005345 -38.795017   3.705771  -1.868593  -6.582630   0.011216   0.016241
 -2.250102   0.733635   3.958205  -6.505384  -9.343959  -8.350492  12.386194  -2.832986  -1.063781   3.823501  -2.127844   2.645881   0.730126  -5.483643   2.557242   1.145444  -0.138045   0.608495 -10.890774   0.482960  12.245992   0.035149  22.312138  -0.030281   2.586985   4.265253  -6.786052   4.622336   2.683869  -0.608332   6.470046  -5.258240 -35.458496   0.035720 -44.876864   0.029511   2.292491  -7.426337   4.359733 -34.995246  -6.427225 -26.151234  51.472879  -0.015022  -0.015210  -8.569434   0.731776   3.669988   1.329723   0.000395   0.000282 -19.563361   0.584771  34.907856  71.987651   0.010722   0.005456 -39.246672   3.565304  -2.098096  -5.846364   0.012454   0.017560
